<?xml version="1.0" encoding="UTF-8"?>
<svg version="1.1" xmlns="http://www.w3.org/2000/svg" width="177" height="193">
<path d="M0 0 C1.69775804 0.05524194 3.39568882 0.10542078 5.09375 0.15039062 C9.23346485 0.27099214 13.36481904 0.46034462 17.5 0.6875 C16.31200317 3.88363011 15.0569023 6.5694007 13.0234375 9.3046875 C12.52481201 9.98354004 12.02618652 10.66239258 11.51245117 11.36181641 C10.97209229 12.08804199 10.4317334 12.81426758 9.875 13.5625 C4.36635993 21.06945767 -1.0066287 28.66087507 -6.3125 36.3125 C-7.02422363 37.33843262 -7.73594727 38.36436523 -8.46923828 39.42138672 C-10.14749109 41.84250653 -11.82449322 44.26447937 -13.5 46.6875 C-12.69320801 46.6987793 -11.88641602 46.71005859 -11.05517578 46.72167969 C-2.28670256 47.09491885 -2.28670256 47.09491885 1.5078125 49.953125 C2.55582031 51.43039063 2.55582031 51.43039063 3.625 52.9375 C4.01478027 53.46456543 4.40456055 53.99163086 4.80615234 54.53466797 C5.63085617 55.6525706 6.44141804 56.7810298 7.23828125 57.91894531 C8.55311872 59.76195666 9.93329079 61.53396872 11.34375 63.3046875 C18.5 72.32250444 18.5 72.32250444 18.5 74.6875 C12.02725586 74.96874469 5.55610898 75.15997476 -0.92138672 75.29174805 C-3.11957654 75.34672698 -5.3173704 75.42154278 -7.51416016 75.51733398 C-27.75347847 76.3771142 -27.75347847 76.3771142 -34.23651123 70.88642883 C-36.5017673 68.62426388 -38.50434685 66.18778576 -40.5 63.6875 C-41.90791633 62.40427053 -43.33953813 61.14551058 -44.8125 59.9375 C-47.3108271 57.77400025 -49.68141492 55.5425572 -52 53.1875 C-54.53349533 50.6307616 -57.10043817 48.12432329 -59.75 45.6875 C-60.39453125 45.089375 -61.0390625 44.49125 -61.703125 43.875 C-62.29609375 43.483125 -62.8890625 43.09125 -63.5 42.6875 C-67.19623326 43.91957775 -67.44148437 44.83401614 -69.375 48.125 C-72.7592634 53.64439954 -76.44430141 58.88807597 -80.25 64.125 C-80.81702637 64.90609131 -81.38405273 65.68718262 -81.96826172 66.49194336 C-83.47429447 68.56055395 -84.98258683 70.62722368 -86.5 72.6875 C-87.08599976 73.78735229 -87.08599976 73.78735229 -87.68383789 74.90942383 C-90.0559145 77.23175666 -91.94720362 77.14207869 -95.17619324 77.14068604 C-96.30134087 77.10971832 -96.30134087 77.10971832 -97.44921875 77.078125 C-98.22183548 77.07246521 -98.99445221 77.06680542 -99.79048157 77.06097412 C-102.25678629 77.03859327 -104.72163492 76.98839703 -107.1875 76.9375 C-108.86000505 76.91743706 -110.53253289 76.89918592 -112.20507812 76.8828125 C-116.30394596 76.83872331 -120.40172617 76.76968675 -124.5 76.6875 C-123.80797652 73.66987465 -123.0777473 71.85303712 -121.125 69.4375 C-117.98603224 65.40490266 -115.11482374 61.22836006 -112.25 57 C-107.88439241 50.56742313 -103.27110664 44.41562623 -98.3984375 38.359375 C-96.70886737 35.98146148 -95.89276397 34.53165287 -95.5 31.6875 C-96.1290625 31.86410156 -96.758125 32.04070312 -97.40625 32.22265625 C-100.29171888 32.80931031 -102.5691357 33.04441041 -105.5 32.6875 C-108.90180344 30.24974555 -111.09764991 27.08075909 -113.5 23.6875 C-114.19222656 22.76195313 -114.88445312 21.83640625 -115.59765625 20.8828125 C-117.60315416 18.17632747 -119.554724 15.43743175 -121.5 12.6875 C-122.03238281 11.96691406 -122.56476563 11.24632812 -123.11328125 10.50390625 C-126.5 5.91514085 -126.5 5.91514085 -126.5 3.6875 C-120.11424741 3.48357948 -113.72934251 3.34411843 -107.34106445 3.24804688 C-105.17114897 3.20797397 -103.00144735 3.15349756 -100.83227539 3.08398438 C-80.45791196 2.44772412 -80.45791196 2.44772412 -74.6875 7.5625 C-72.890625 9.7109375 -72.890625 9.7109375 -71.5 11.6875 C-70.2315625 12.925 -70.2315625 12.925 -68.9375 14.1875 C-68.133125 15.0125 -67.32875 15.8375 -66.5 16.6875 C-59.52641992 23.81267964 -52.18671951 30.34595641 -44.5 36.6875 C-39.33632205 30.5574354 -34.70867092 24.19972009 -30.35400391 17.48217773 C-29.5542666 16.25445209 -28.73385433 15.0400198 -27.89648438 13.83764648 C-26.39656973 11.61745045 -26.39656973 11.61745045 -25.05664062 8.78930664 C-18.98709026 -1.95265558 -11.04473632 -0.62491084 0 0 Z " fill="#318DCC" transform="translate(142.5,51.3125)"/>
<path d="M0 0 C0.99 0.33 1.98 0.66 3 1 C3 1.66 3 2.32 3 3 C3.58249512 3.25507324 4.16499023 3.51014648 4.76513672 3.77294922 C7.22931478 5.12590519 8.80904605 6.61199923 10.7578125 8.6328125 C11.46679688 9.35726562 12.17578125 10.08171875 12.90625 10.828125 C14.36239161 12.3355392 15.81813414 13.84333902 17.2734375 15.3515625 C18.34851563 16.44984375 18.34851563 16.44984375 19.4453125 17.5703125 C20.17218262 18.32602539 20.89905273 19.08173828 21.64794922 19.86035156 C23.93505872 22.09234465 23.93505872 22.09234465 26.76220703 23.60058594 C29.95591499 25.50469059 31.84973591 26.94159646 34 30 C35.65888788 36.81422563 34.93686251 44.06017653 34.625 51 C34.57479172 52.93868758 34.52917265 54.87749978 34.48828125 56.81640625 C34.37854836 61.54736541 34.20629701 66.27230728 34 71 C31.00221763 69.55588944 28.7254556 68.04757045 26.25 65.8125 C25.55777344 65.19246094 24.86554688 64.57242188 24.15234375 63.93359375 C23.08693359 62.97646484 23.08693359 62.97646484 22 62 C20.60536242 60.79028674 19.20956144 59.58191319 17.8125 58.375 C14.74730592 55.69592533 11.87903335 52.87903335 9 50 C8.25105469 49.38125 7.50210938 48.7625 6.73046875 48.125 C5.91191406 47.444375 5.09335938 46.76375 4.25 46.0625 C3.47140625 45.43472656 2.6928125 44.80695313 1.890625 44.16015625 C-1.97650273 39.74172312 -1.14833858 33.40348284 -1.1328125 27.79296875 C-1.13376923 27.02696854 -1.13472595 26.26096832 -1.13571167 25.47175598 C-1.13638863 23.86406369 -1.13456829 22.25636859 -1.13037109 20.64868164 C-1.12497891 18.17783578 -1.13035124 15.70716866 -1.13671875 13.23632812 C-1.13605861 11.6718746 -1.13477876 10.10742118 -1.1328125 8.54296875 C-1.13483673 7.80137009 -1.13686096 7.05977142 -1.13894653 6.29570007 C-1.11497642 1.11497642 -1.11497642 1.11497642 0 0 Z " fill="#308AC7" transform="translate(78,99)"/>
<path d="M0 0 C4.09901869 1.61032877 6.76181447 4.57828727 9.75 7.6875 C14.93690203 12.98127501 20.13427159 18.28446191 26.21875 22.55859375 C26.8065625 23.03425781 27.394375 23.50992188 28 24 C28 24.66 28 25.32 28 26 C28.61875 26.268125 29.2375 26.53625 29.875 26.8125 C32 28 32 28 34 31 C34.24291992 33.39746094 34.24291992 33.39746094 34.23046875 36.234375 C34.22917969 37.27730713 34.22789063 38.32023926 34.2265625 39.39477539 C34.21367188 40.50199951 34.20078125 41.60922363 34.1875 42.75 C34.18105469 43.87204834 34.17460938 44.99409668 34.16796875 46.15014648 C34.09138601 54.46475875 33.75404169 62.7190064 33 71 C29.83668818 69.59291253 27.62724865 67.90966121 25.13671875 65.515625 C24.41419922 64.82726562 23.69167969 64.13890625 22.94726562 63.4296875 C22.20154297 62.71039063 21.45582031 61.99109375 20.6875 61.25 C19.21370077 59.83701601 17.73845725 58.42553682 16.26171875 57.015625 C15.55063965 56.33564453 14.83956055 55.65566406 14.10693359 54.95507812 C12.10847268 53.1006546 10.05586963 51.3484578 7.95703125 49.609375 C6.98121094 48.74828125 6.00539063 47.8871875 5 47 C5 46.34 5 45.68 5 45 C4.38125 44.731875 3.7625 44.46375 3.125 44.1875 C1 43 1 43 -1 40 C-1.18414604 37.12158456 -1.25601188 34.34226778 -1.23046875 31.46484375 C-1.23001053 30.63038223 -1.22955231 29.79592072 -1.2290802 28.93617249 C-1.22606081 27.1734983 -1.21818385 25.41082671 -1.20581055 23.64819336 C-1.18754663 20.944403 -1.18530096 18.240955 -1.18554688 15.53710938 C-1.18063182 13.82551786 -1.17480355 12.11392867 -1.16796875 10.40234375 C-1.16685593 9.59087387 -1.1657431 8.77940399 -1.16459656 7.94334412 C-1.11607622 2.23215245 -1.11607622 2.23215245 0 0 Z " fill="#2F8BCB" transform="translate(65,11)"/>
<path d="M0 0 C4.09344678 0.5451553 6.26355069 2.70865377 9.25 5.4375 C10.14203125 6.24058594 11.0340625 7.04367188 11.953125 7.87109375 C14 10 14 10 14 12 C14.556875 12.226875 15.11375 12.45375 15.6875 12.6875 C18.63246684 14.35896766 20.68156544 16.55276352 23 19 C21.66000502 22.006818 20.20154709 23.99762609 17.8125 26.25 C14.54101366 29.41903896 11.53905802 32.7440911 8.578125 36.203125 C8.05734375 36.79609375 7.5365625 37.3890625 7 38 C6.54109375 38.59296875 6.0821875 39.1859375 5.609375 39.796875 C4 41 4 41 1.83984375 40.8984375 C-2.01282784 39.67957303 -5.71412172 38.19069512 -9.4375 36.625 C-10.17548828 36.32078125 -10.91347656 36.0165625 -11.67382812 35.703125 C-15.87060692 33.95726502 -19.95862778 32.08793557 -24 30 C-22.75344306 25.42929123 -20.23264096 23.04895745 -16.921875 19.875 C-10.6913431 13.7964323 -5.38124515 6.82090295 0 0 Z " fill="#2F8AC9" transform="translate(58,129)"/>
<path d="M0 0 C3.67724969 2.96222892 7.87042561 6.81324008 8.48828125 11.6953125 C8.68145535 17.53120378 7.96645324 22.1596176 4.25 26.8125 C1.40469773 29.10931026 -1.56783337 31.01743164 -4.75 32.8125 C-8.28675651 31.28397075 -10.74564746 29.1708611 -13.5625 26.5625 C-17.56134073 22.89541494 -21.61175264 19.32101407 -25.75 15.8125 C-24.79329449 9.38686595 -23.56002503 5.3018567 -18.75 0.8125 C-12.41147408 -2.96623661 -6.65296199 -2.87286995 0 0 Z " fill="#308BCE" transform="translate(121.75,18.1875)"/>
<path d="M0 0 C3.18706942 1.43561686 5.62169105 3.20266329 8.25 5.5 C8.95640625 6.1084375 9.6628125 6.716875 10.390625 7.34375 C12 9 12 9 12 11 C12.928125 11.4021875 12.928125 11.4021875 13.875 11.8125 C16 13 16 13 18 16 C18.24291992 18.39746094 18.24291992 18.39746094 18.23046875 21.234375 C18.22917969 22.27730713 18.22789063 23.32023926 18.2265625 24.39477539 C18.20722656 26.05561157 18.20722656 26.05561157 18.1875 27.75 C18.18105469 28.87204834 18.17460938 29.99409668 18.16796875 31.15014648 C18.09138601 39.46475875 17.75404169 47.7190064 17 56 C13.81809522 54.58508201 11.5826982 52.87686407 9.06640625 50.48046875 C8.33486328 49.78759766 7.60332031 49.09472656 6.84960938 48.38085938 C6.09486328 47.65705078 5.34011719 46.93324219 4.5625 46.1875 C3.81162109 45.47529297 3.06074219 44.76308594 2.28710938 44.02929688 C-1.5271285 40.40291944 -5.30064699 36.74348048 -9 33 C-7.68 33 -6.36 33 -5 33 C-5 33.66 -5 34.32 -5 35 C-3.68 35 -2.36 35 -1 35 C-1 35.66 -1 36.32 -1 37 C-0.34 37 0.32 37 1 37 C1 37.99 1 38.98 1 40 C1.99 40 2.98 40 4 40 C4 40.66 4 41.32 4 42 C6.64 42.33 9.28 42.66 12 43 C12 41.68 12 40.36 12 39 C12.99 39 13.98 39 15 39 C14.86157705 35.04137069 14.71300994 31.08318673 14.5625 27.125 C14.52318359 25.99707031 14.48386719 24.86914062 14.44335938 23.70703125 C14.40146484 22.63066406 14.35957031 21.55429687 14.31640625 20.4453125 C14.27974854 19.45031738 14.24309082 18.45532227 14.20532227 17.43017578 C14.15040468 14.99220499 14.15040468 14.99220499 13 13 C12.071875 12.71125 11.14375 12.4225 10.1875 12.125 C6.74485604 10.90994919 5.37541744 9.70306123 3 7 C2.4225 6.505 1.845 6.01 1.25 5.5 C0 4 0 4 0 0 Z " fill="#64A0CC" transform="translate(81,26)"/>
<path d="M0 0 C3.67724969 2.96222892 7.87042561 6.81324008 8.48828125 11.6953125 C8.68145535 17.53120378 7.96645324 22.1596176 4.25 26.8125 C1.40469773 29.10931026 -1.56783337 31.01743164 -4.75 32.8125 C-8.51488042 31.09095212 -10.90063897 28.82015886 -13.75 25.8125 C-9.08333333 26.47916667 -4.41666667 27.14583333 0.25 27.8125 C0.25 26.1625 0.25 24.5125 0.25 22.8125 C1.57 23.1425 2.89 23.4725 4.25 23.8125 C4.25 22.1625 4.25 20.5125 4.25 18.8125 C4.91 18.8125 5.57 18.8125 6.25 18.8125 C5.59 14.8525 4.93 10.8925 4.25 6.8125 C2.93 6.8125 1.61 6.8125 0.25 6.8125 C0.25 5.4925 0.25 4.1725 0.25 2.8125 C-3.31071312 1.76367609 -6.80527897 1.50863047 -10.5 1.25 C-11.67046875 1.16621094 -12.8409375 1.08242188 -14.046875 0.99609375 C-14.93890625 0.93550781 -15.8309375 0.87492187 -16.75 0.8125 C-12.18971982 -3.74778018 -5.4816225 -2.36706426 0 0 Z " fill="#70A8D0" transform="translate(121.75,18.1875)"/>
<path d="M0 0 C3 2 3 2 3.36076355 3.79702759 C3.35410172 4.52094696 3.34743988 5.24486633 3.34057617 5.99072266 C3.34034958 6.81142242 3.34012299 7.63212219 3.33988953 8.47769165 C3.32440567 9.36419403 3.30892181 10.25069641 3.29296875 11.1640625 C3.28872391 12.07127045 3.28447906 12.97847839 3.28010559 13.91317749 C3.26328133 16.81741732 3.2256226 19.7209691 3.1875 22.625 C3.17245799 24.59113583 3.15876875 26.55728251 3.14648438 28.5234375 C3.11336557 33.34922439 3.06155786 38.17449545 3 43 C-0.05693177 41.5311002 -2.35492923 39.96973277 -4.875 37.6875 C-8.19429997 34.71629141 -11.56378965 31.83487354 -15 29 C-13.1875 28.375 -13.1875 28.375 -11 28 C-10.01 28.66 -9.02 29.32 -8 30 C-5.84725052 29.69159401 -5.84725052 29.69159401 -4 29 C-4 29.66 -4 30.32 -4 31 C-2.35 30.67 -0.7 30.34 1 30 C1.02896822 25.56251365 1.04678788 21.12505153 1.0625 16.6875 C1.07087891 15.42486328 1.07925781 14.16222656 1.08789062 12.86132812 C1.09111328 11.65283203 1.09433594 10.44433594 1.09765625 9.19921875 C1.10289307 8.08377686 1.10812988 6.96833496 1.11352539 5.8190918 C1.12749254 2.91947938 1.12749254 2.91947938 0 0 Z " fill="#7CB3DC" transform="translate(109,127)"/>
<path d="M0 0 C3.66060821 0.58536753 5.54535164 2.083239 8.25 4.5625 C8.95640625 5.20316406 9.6628125 5.84382812 10.390625 6.50390625 C10.92171875 6.99761719 11.4528125 7.49132812 12 8 C11.01 8.495 11.01 8.495 10 9 C9.67 9.99 9.34 10.98 9 12 C6.125 12.625 6.125 12.625 3 13 C2.34 12.34 1.68 11.68 1 11 C-0.65821773 10.62690101 -2.32577014 10.29299023 -4 10 C-4.66 9.67 -5.32 9.34 -6 9 C-4.47291037 5.56404834 -2.40072955 2.88087546 0 0 Z " fill="#4095CE" transform="translate(58,129)"/>
<path d="M0 0 C2.4174326 0.8790664 3.48719048 1.72460205 5.0625 3.75 C5.75 5.9375 5.75 5.9375 6.0625 7.75 C5.4025 7.42 4.7425 7.09 4.0625 6.75 C3.0725 9.06 2.0825 11.37 1.0625 13.75 C-1.2475 13.75 -3.5575 13.75 -5.9375 13.75 C-5.9375 12.43 -5.9375 11.11 -5.9375 9.75 C-6.5975 9.75 -7.2575 9.75 -7.9375 9.75 C-7.6075 8.1 -7.2775 6.45 -6.9375 4.75 C-5.9475 4.75 -4.9575 4.75 -3.9375 4.75 C-3.9375 3.43 -3.9375 2.11 -3.9375 0.75 C-1.9375 -0.25 -1.9375 -0.25 0 0 Z " fill="#298BCB" transform="translate(84.9375,79.25)"/>
<path d="M0 0 C0 3.90838866 -1.50567876 5.11594107 -4 8 C-3.67 8.66 -3.34 9.32 -3 10 C-4.65 10.66 -6.3 11.32 -8 12 C-7.67 12.66 -7.34 13.32 -7 14 C-4.97536745 14.65213292 -4.97536745 14.65213292 -3 15 C-3.99 17.475 -3.99 17.475 -5 20 C-3.68 20 -2.36 20 -1 20 C-1 20.66 -1 21.32 -1 22 C0.32 22.33 1.64 22.66 3 23 C-0.00646952 24.30230734 -1.09355667 23.96485975 -4.234375 22.78515625 C-5.39453125 22.21667969 -6.5546875 21.64820313 -7.75 21.0625 C-8.92046875 20.49660156 -10.0909375 19.93070313 -11.296875 19.34765625 C-12.18890625 18.90292969 -13.0809375 18.45820313 -14 18 C-12.75084492 14.40021813 -11.48141009 12.14578273 -8.6875 9.5625 C-5.52161374 6.54232399 -2.74241499 3.40724287 0 0 Z " fill="#3D88BF" transform="translate(48,141)"/>
<path d="M0 0 C0.66 0.33 1.32 0.66 2 1 C2 12.88 2 24.76 2 37 C1.67 37 1.34 37 1 37 C1 34.03 1 31.06 1 28 C-0.65 28.33 -2.3 28.66 -4 29 C-4 28.34 -4 27.68 -4 27 C-5.65 27.66 -7.3 28.32 -9 29 C-9.66 28.01 -10.32 27.02 -11 26 C-10.67 25.34 -10.34 24.68 -10 24 C-10.66 23.67 -11.32 23.34 -12 23 C-10.35 22.67 -8.7 22.34 -7 22 C-6.67 22.66 -6.34 23.32 -6 24 C-5.401875 23.67 -4.80375 23.34 -4.1875 23 C-2 22 -2 22 1 22 C0.67 14.74 0.34 7.48 0 0 Z " fill="#2C7CB8" transform="translate(109,129)"/>
<path d="M0 0 C3.625 0.1875 3.625 0.1875 6.625 2.1875 C9.14002177 2.55446181 9.14002177 2.55446181 11.94921875 2.6015625 C12.97724609 2.64023438 14.00527344 2.67890625 15.06445312 2.71875 C16.13630859 2.7496875 17.20816406 2.780625 18.3125 2.8125 C19.39595703 2.85117188 20.47941406 2.88984375 21.59570312 2.9296875 C24.27196467 3.02400509 26.94821843 3.10960005 29.625 3.1875 C29.625 3.8475 29.625 4.5075 29.625 5.1875 C18.075 5.1875 6.525 5.1875 -5.375 5.1875 C-4.13556338 0.22975352 -4.13556338 0.22975352 0 0 Z " fill="#8BBAD4" transform="translate(23.375,122.8125)"/>
<path d="M0 0 C0.33 1.32 0.66 2.64 1 4 C0.34 4 -0.32 4 -1 4 C-1 4.99 -1 5.98 -1 7 C-1.66 7 -2.32 7 -3 7 C-3 7.99 -3 8.98 -3 10 C-3.66 10 -4.32 10 -5 10 C-5.12375 10.70125 -5.2475 11.4025 -5.375 12.125 C-6.05577616 15.25657035 -6.71905594 18.05382867 -8 21 C-9.64333504 22.03789581 -11.31243867 23.03567924 -13 24 C-14.34270821 25.99371825 -15.67653494 27.9934562 -17 30 C-19.25 31.375 -19.25 31.375 -21 32 C-19.49340513 27.56345269 -17.06758481 24.04736441 -14.3125 20.3125 C-13.41237567 19.07319602 -12.51263855 17.83361072 -11.61328125 16.59375 C-11.17064941 15.98660156 -10.72801758 15.37945312 -10.27197266 14.75390625 C-8.48700489 12.29263783 -6.74105747 9.80496122 -5 7.3125 C-4.46375 6.54550781 -3.9275 5.77851562 -3.375 4.98828125 C-2.23310622 3.3370769 -1.11360775 1.67041162 0 0 Z " fill="#5394C4" transform="translate(123,53)"/>
<path d="M0 0 C0.33 0.66 0.66 1.32 1 2 C0.22265625 3.9453125 0.22265625 3.9453125 -0.9375 6.125 C-1.31777344 6.84945312 -1.69804688 7.57390625 -2.08984375 8.3203125 C-2.39019531 8.87460938 -2.69054687 9.42890625 -3 10 C-3.66 10 -4.32 10 -5 10 C-5.268125 10.969375 -5.53625 11.93875 -5.8125 12.9375 C-6.204375 13.948125 -6.59625 14.95875 -7 16 C-7.99 16.33 -8.98 16.66 -10 17 C-10 17.99 -10 18.98 -10 20 C-10.66 20 -11.32 20 -12 20 C-12 22.97 -12 25.94 -12 29 C-12.66 28.67 -13.32 28.34 -14 28 C-14 27.34 -14 26.68 -14 26 C-15.98 26.99 -17.96 27.98 -20 29 C-17.72485466 24.20886728 -14.68313047 19.98711674 -11.6875 15.625 C-11.11837891 14.78710938 -10.54925781 13.94921875 -9.96289062 13.0859375 C-6.83837628 8.52292688 -3.62570322 4.17670127 0 0 Z " fill="#65A2CD" transform="translate(41,94)"/>
<path d="M0 0 C4.21814817 3.9700218 7.61227103 8.30840284 11 13 C9 15 9 15 6.1796875 15.1953125 C5.08914062 15.17210938 3.99859375 15.14890625 2.875 15.125 C1.77929688 15.10695313 0.68359375 15.08890625 -0.4453125 15.0703125 C-1.28835937 15.04710938 -2.13140625 15.02390625 -3 15 C0 13 0 13 4 13 C3.65555119 10.52733235 3.65555119 10.52733235 3 8 C2.34 7.67 1.68 7.34 1 7 C1 5.68 1 4.36 1 3 C-0.32 3.33 -1.64 3.66 -3 4 C-2.67 3.01 -2.34 2.02 -2 1 C-1.34 0.67 -0.68 0.34 0 0 Z " fill="#3E8CC4" transform="translate(148,109)"/>
<path d="M0 0 C1.22589844 0.01353516 1.22589844 0.01353516 2.4765625 0.02734375 C3.41628906 0.04474609 3.41628906 0.04474609 4.375 0.0625 C4.705 1.0525 5.035 2.0425 5.375 3.0625 C7.025 3.3925 8.675 3.7225 10.375 4.0625 C10.705 5.0525 11.035 6.0425 11.375 7.0625 C10.385 7.7225 9.395 8.3825 8.375 9.0625 C8.045 7.7425 7.715 6.4225 7.375 5.0625 C2.755 5.0625 -1.865 5.0625 -6.625 5.0625 C-6.625 3.7425 -6.625 2.4225 -6.625 1.0625 C-4.21954362 -0.14022819 -2.67503047 -0.03821472 0 0 Z " fill="#297EBD" transform="translate(42.625,76.9375)"/>
<path d="M0 0 C3.21524305 1.40844718 5.32183868 3.10344786 7.75 5.625 C8.67039062 6.57246094 8.67039062 6.57246094 9.609375 7.5390625 C10.29773438 8.26222656 10.29773438 8.26222656 11 9 C7.90521121 10.03159626 6.47368607 9.97482862 3.3125 9.5625 C2.50425781 9.46066406 1.69601563 9.35882813 0.86328125 9.25390625 C0.24839844 9.17011719 -0.36648437 9.08632812 -1 9 C-1.125 2.25 -1.125 2.25 0 0 Z " fill="#348CC6" transform="translate(81,102)"/>
<path d="M0 0 C3.18706942 1.43561686 5.62169105 3.20266329 8.25 5.5 C8.95640625 6.1084375 9.6628125 6.716875 10.390625 7.34375 C12 9 12 9 12 11 C13.32 11.66 14.64 12.32 16 13 C15.34 13.66 14.68 14.32 14 15 C13.67 14.34 13.34 13.68 13 13 C12.071875 12.71125 11.14375 12.4225 10.1875 12.125 C6.74485604 10.90994919 5.37541744 9.70306123 3 7 C2.4225 6.505 1.845 6.01 1.25 5.5 C0 4 0 4 0 0 Z " fill="#67ADD7" transform="translate(81,26)"/>
<path d="M0 0 C11.88 0 23.76 0 36 0 C33.75 5.625 33.75 5.625 31 8 C30.87625 7.195625 30.7525 6.39125 30.625 5.5625 C30.41875 4.716875 30.2125 3.87125 30 3 C27.20879909 1.60439955 24.79794308 1.78191712 21.6796875 1.68359375 C20.42285156 1.64169922 19.16601562 1.59980469 17.87109375 1.55664062 C16.55238281 1.51732422 15.23367187 1.47800781 13.875 1.4375 C12.53514249 1.39430488 11.19529844 1.35069027 9.85546875 1.30664062 C6.57042185 1.20029019 3.28529719 1.09826192 0 1 C0 0.67 0 0.34 0 0 Z " fill="#80B5DD" transform="translate(124,52)"/>
<path d="M0 0 C2 2 2 2 2 6 C2.83402344 5.91621094 3.66804688 5.83242187 4.52734375 5.74609375 C11.23795059 5.1388338 17.33716455 4.98363527 24 6 C24 6.33 24 6.66 24 7 C20.27089934 7.0582462 16.54191636 7.09367917 12.8125 7.125 C11.75740234 7.14175781 10.70230469 7.15851563 9.61523438 7.17578125 C8.59365234 7.18222656 7.57207031 7.18867187 6.51953125 7.1953125 C5.11344604 7.21102295 5.11344604 7.21102295 3.67895508 7.22705078 C0.76866636 6.98039367 -1.34583648 6.18520138 -4 5 C-5.32676508 4.64141484 -6.65835921 4.2981424 -8 4 C-6.6875 2.5 -6.6875 2.5 -5 1 C-4.01 1 -3.02 1 -2 1 C-1.67 1.66 -1.34 2.32 -1 3 C-0.67 2.01 -0.34 1.02 0 0 Z " fill="#287BB9" transform="translate(29,119)"/>
<path d="M0 0 C0.66 0.33 1.32 0.66 2 1 C2 1.99 2 2.98 2 4 C2.99 3.67 3.98 3.34 5 3 C6.86551426 6.58752742 8.42535928 10.27812193 10 14 C6.31930113 12.46356148 4.01224796 10.21849055 1.25 7.375 C0.45078125 6.55773437 -0.3484375 5.74046875 -1.171875 4.8984375 C-1.77515625 4.27195312 -2.3784375 3.64546875 -3 3 C-2.01 2.01 -1.02 1.02 0 0 Z " fill="#5EA9D7" transform="translate(92,100)"/>
<path d="M0 0 C1.32 0 2.64 0 4 0 C4 0.66 4 1.32 4 2 C5.32 2 6.64 2 8 2 C8 2.66 8 3.32 8 4 C8.66 4 9.32 4 10 4 C10 4.99 10 5.98 10 7 C10.99 7 11.98 7 13 7 C13.99 9.31 14.98 11.62 16 14 C12.40155551 12.48357123 10.14286857 10.35026558 7.4375 7.5625 C6.67308594 6.78003906 5.90867187 5.99757813 5.12109375 5.19140625 C4.42113281 4.46824219 3.72117187 3.74507812 3 3 C2.00219538 1.99780943 1.00319998 0.99678975 0 0 Z " fill="#639DC7" transform="translate(72,59)"/>
<path d="M0 0 C0.99 0.33 1.98 0.66 3 1 C2.67 1.66 2.34 2.32 2 3 C1.84279903 5.9148537 1.74144346 8.80939636 1.68359375 11.7265625 C1.66281265 12.58937836 1.64203156 13.45219421 1.62062073 14.34115601 C1.55513966 17.10235493 1.49624702 19.86365038 1.4375 22.625 C1.3943134 24.49480172 1.35069907 26.36459362 1.30664062 28.234375 C1.19945976 32.82281728 1.09818825 37.41135683 1 42 C0.67 42 0.34 42 0 42 C-0.94057007 37.24250879 -1.14618522 32.62534378 -1.1328125 27.79296875 C-1.13376923 27.02696854 -1.13472595 26.26096832 -1.13571167 25.47175598 C-1.13638863 23.86406369 -1.13456829 22.25636859 -1.13037109 20.64868164 C-1.12497891 18.17783578 -1.13035124 15.70716866 -1.13671875 13.23632812 C-1.13605861 11.6718746 -1.13477876 10.10742118 -1.1328125 8.54296875 C-1.13483673 7.80137009 -1.13686096 7.05977142 -1.13894653 6.29570007 C-1.11497642 1.11497642 -1.11497642 1.11497642 0 0 Z " fill="#91BAD6" transform="translate(78,99)"/>
<path d="M0 0 C0.66 0.99 1.32 1.98 2 3 C0.9441902 5.78349856 -0.00518252 7.00409146 -2.375 8.875 C-5 10 -5 10 -7 9.5 C-9.5888689 7.55834833 -11.77716149 5.34632954 -14 3 C-9.33333333 3.66666667 -4.66666667 4.33333333 0 5 C0 3.35 0 1.7 0 0 Z " fill="#68A0CB" transform="translate(122,41)"/>
<path d="M0 0 C0.99 0.66 1.98 1.32 3 2 C1.4169423 6.2742558 -1.50568404 8.26531794 -5 11 C-5 8.03 -5 5.06 -5 2 C-3.35 2 -1.7 2 0 2 C0 1.34 0 0.68 0 0 Z " fill="#579ECC" transform="translate(78,146)"/>
<path d="M0 0 C2.31 1.65 4.62 3.3 7 5 C8.32 4.01 9.64 3.02 11 2 C10.67 3.65 10.34 5.3 10 7 C7.03 6.67 4.06 6.34 1 6 C0.67 6.66 0.34 7.32 0 8 C-1.32 7.67 -2.64 7.34 -4 7 C-3.67 5.35 -3.34 3.7 -3 2 C-2.34 2.33 -1.68 2.66 -1 3 C-0.67 2.01 -0.34 1.02 0 0 Z " fill="#56A1D1" transform="translate(91,83)"/>
<path d="M0 0 C0.66 0.33 1.32 0.66 2 1 C1.62746094 1.4846875 1.25492188 1.969375 0.87109375 2.46875 C-1.73917721 6.16722657 -3.45932968 8.75117384 -2.875 13.375 C-2.19050597 16.80637098 -2.19050597 16.80637098 -1 19 C-3.3974422 18.04102312 -4.74904489 17.37480309 -6.203125 15.203125 C-7.4567062 11.73734168 -6.23120844 9.4695898 -5.00390625 6.12890625 C-3.77118863 3.51477745 -2.25892329 1.79155985 0 0 Z " fill="#8ABAD9" transform="translate(103,19)"/>
<path d="M0 0 C1.65 0.33 3.3 0.66 5 1 C5.68707555 3.49064888 6 5.37886292 6 8 C3.6875 8.3125 3.6875 8.3125 1 8 C-0.8125 5.5 -0.8125 5.5 -2 3 C-1.34 2.01 -0.68 1.02 0 0 Z " fill="#267FC1" transform="translate(102,108)"/>
<path d="M0 0 C4.29 0 8.58 0 13 0 C12.14285714 8.57142857 12.14285714 8.57142857 10 12 C8.68 12 7.36 12 6 12 C7.07401108 9.08482708 7.77810176 7.22189824 10 5 C10.33 3.68 10.66 2.36 11 1 C7.7 1.33 4.4 1.66 1 2 C0.67 1.34 0.34 0.68 0 0 Z " fill="#82B7D7" transform="translate(36,82)"/>
<path d="M0 0 C1.875 0.3125 1.875 0.3125 4 1 C4.66 1.99 5.32 2.98 6 4 C5.236875 4.268125 4.47375 4.53625 3.6875 4.8125 C0.99574277 5.7988658 0.99574277 5.7988658 -0.5625 7.625 C-2 9 -2 9 -6 9 C-4.47291037 5.56404834 -2.40072955 2.88087546 0 0 Z " fill="#5D95C1" transform="translate(58,129)"/>
<path d="M0 0 C0.99 0.33 1.98 0.66 3 1 C1.68334336 2.67987227 0.34736973 4.34466005 -1 6 C-1.474375 6.61875 -1.94875 7.2375 -2.4375 7.875 C-4 9 -4 9 -6.3125 8.8125 C-9.22975467 7.93053929 -12.12232053 7.00384168 -15 6 C-11.18243176 4.62567543 -7.92744671 5.32024961 -4 6 C-3.71125 5.195625 -3.4225 4.39125 -3.125 3.5625 C-2 1 -2 1 0 0 Z " fill="#649FC6" transform="translate(66,161)"/>
<path d="M0 0 C3.7952131 1.49097658 5.61042731 3.75700849 8 7 C5.03 6.505 5.03 6.505 2 6 C1.67 9.63 1.34 13.26 1 17 C0.67 17 0.34 17 0 17 C-1.69395018 3.38790036 -1.69395018 3.38790036 0 0 Z " fill="#82B5D8" transform="translate(65,11)"/>
<path d="M0 0 C0 3.90838866 -1.50567876 5.11594107 -4 8 C-3.67 8.66 -3.34 9.32 -3 10 C-4.79036458 10.94401042 -6.58072917 11.88802083 -8.37109375 12.83203125 C-10.32267987 13.99019799 -10.32267987 13.99019799 -11 17 C-11.99 17.33 -12.98 17.66 -14 18 C-12.74405631 13.39487313 -10.16600788 10.9729594 -6.8203125 7.78125 C-4.32946191 5.34385114 -2.18375599 2.71315138 0 0 Z " fill="#7FB6D9" transform="translate(48,141)"/>
<path d="M0 0 C1.27679803 2.55359605 0.69660895 3.2909652 0 6 C-0.03786901 7.66623639 -0.04627845 9.33397597 0 11 C-0.66 10.67 -1.32 10.34 -2 10 C-2 9.34 -2 8.68 -2 8 C-3.98 8.99 -5.96 9.98 -8 11 C-3.8 1.9 -3.8 1.9 0 0 Z " fill="#559AC7" transform="translate(29,112)"/>
<path d="M0 0 C0.91007812 0.00902344 1.82015625 0.01804688 2.7578125 0.02734375 C3.45648438 0.03894531 4.15515625 0.05054688 4.875 0.0625 C2.3095406 2.6279594 0.39813332 2.60296087 -3.125 3.0625 C-2.795 4.7125 -2.465 6.3625 -2.125 8.0625 C-3.83384005 6.43910195 -5.49946717 4.76930947 -7.125 3.0625 C-7.125 2.4025 -7.125 1.7425 -7.125 1.0625 C-4.60024538 -0.19987731 -2.81299534 -0.03606404 0 0 Z " fill="#569ED4" transform="translate(25.125,56.9375)"/>
<path d="M0 0 C0.66 1.32 1.32 2.64 2 4 C1.38125 4.5878125 1.38125 4.5878125 0.75 5.1875 C-1.12755479 7.06167301 -1.12755479 7.06167301 -3 9.625 C-5 12 -5 12 -8 13 C-6.40956621 7.91061189 -3.2553049 4.12543357 0 0 Z " fill="#6DAAD2" transform="translate(110,72)"/>
<path d="M0 0 C0.99 0.99 1.98 1.98 3 3 C1.34832443 6.5786304 -0.78286492 9.74820188 -3 13 C-3.33 12.34 -3.66 11.68 -4 11 C-4.99 10.67 -5.98 10.34 -7 10 C-6.34 10 -5.68 10 -5 10 C-5 9.34 -5 8.68 -5 8 C-3.68 8 -2.36 8 -1 8 C-1.020625 7.05125 -1.04125 6.1025 -1.0625 5.125 C-1 2 -1 2 0 0 Z " fill="#6CA8D3" transform="translate(57,114)"/>
<path d="M0 0 C0.66 0.33 1.32 0.66 2 1 C2.99 1.33 3.98 1.66 5 2 C5 4.31 5 6.62 5 9 C3.85073734 8.04578192 2.70569459 7.08647955 1.5625 6.125 C0.92441406 5.59132813 0.28632812 5.05765625 -0.37109375 4.5078125 C-2 3 -2 3 -3 1 C-2.01 0.67 -1.02 0.34 0 0 Z " fill="#60A2D2" transform="translate(91,72)"/>
<path d="M0 0 C2.31 0 4.62 0 7 0 C4.19195732 2.96404505 1.81684226 5.44499019 -2 7 C-2 6.01 -2 5.02 -2 4 C-1.34 4 -0.68 4 0 4 C0 2.68 0 1.36 0 0 Z M-4 7 C-2 8 -2 8 -2 8 Z " fill="#2F83C0" transform="translate(124,53)"/>
<path d="M0 0 C1.1446875 0.2475 1.1446875 0.2475 2.3125 0.5 C5.03596236 1.09145396 5.03596236 1.09145396 8 1 C8.99 1 9.98 1 11 1 C11 1.66 11 2.32 11 3 C10.34 3.66 9.68 4.32 9 5 C8.67 5.99 8.34 6.98 8 8 C6.66372225 6.85760183 5.33104612 5.71098945 4 4.5625 C3.2575 3.92441406 2.515 3.28632813 1.75 2.62890625 C1.1725 2.09136719 0.595 1.55382812 0 1 C0 0.67 0 0.34 0 0 Z " fill="#5C98C5" transform="translate(94,155)"/>
<path d="M0 0 C1.4606285 2.64738916 2 3.89448334 2 7 C2.66 7 3.32 7 4 7 C3.67 7.66 3.34 8.32 3 9 C1.66372225 7.85760183 0.33104612 6.71098945 -1 5.5625 C-1.7425 4.92441406 -2.485 4.28632812 -3.25 3.62890625 C-3.8275 3.09136719 -4.405 2.55382812 -5 2 C-5 1.67 -5 1.34 -5 1 C-3.35 0.67 -1.7 0.34 0 0 Z " fill="#5C9CCB" transform="translate(109,115)"/>
<path d="M0 0 C2.96404505 2.80804268 5.44499019 5.18315774 7 9 C5.02 8.34 3.04 7.68 1 7 C1 5.68 1 4.36 1 3 C-0.32 3.33 -1.64 3.66 -3 4 C-2.67 3.01 -2.34 2.02 -2 1 C-1.34 0.67 -0.68 0.34 0 0 Z " fill="#67AAD4" transform="translate(148,109)"/>
<path d="M0 0 C0 3.63195496 -0.95453155 4.74713911 -3 7.6875 C-3.556875 8.49574219 -4.11375 9.30398437 -4.6875 10.13671875 C-5.120625 10.75160156 -5.55375 11.36648437 -6 12 C-6.66 11.01 -7.32 10.02 -8 9 C-7.01 8.67 -6.02 8.34 -5 8 C-4.67 5.69 -4.34 3.38 -4 1 C-2.68 0.67 -1.36 0.34 0 0 Z " fill="#71A8CC" transform="translate(70,101)"/>
<path d="M0 0 C0.33 0.99 0.66 1.98 1 3 C-0.32 4.32 -1.64 5.64 -3 7 C-3.66 6.67 -4.32 6.34 -5 6 C-5 4.35 -5 2.7 -5 1 C-3 0 -3 0 0 0 Z " fill="#267BBD" transform="translate(29,60)"/>
<path d="M0 0 C2.88437779 1.29299694 4.87219421 2.65941363 7 5 C6.67 5.99 6.34 6.98 6 8 C2.97984943 6.99328314 1.90683422 6.451644 0 4 C0 2.68 0 1.36 0 0 Z " fill="#6AA7CF" transform="translate(81,26)"/>
<path d="M0 0 C0.66 0.66 1.32 1.32 2 2 C1.875 4.5 1.875 4.5 1 7 C-1.0625 8.3125 -1.0625 8.3125 -3 9 C-2.5020163 5.26512223 -2.12508244 3.18762365 0 0 Z " fill="#4E91BF" transform="translate(61,109)"/>
<path d="M0 0 C0 0.99 0 1.98 0 3 C-0.99 3 -1.98 3 -3 3 C-3 4.65 -3 6.3 -3 8 C-3.99 8 -4.98 8 -6 8 C-6.33 6.68 -6.66 5.36 -7 4 C-2.25 0 -2.25 0 0 0 Z " fill="#2C83BF" transform="translate(140,77)"/>
<path d="M0 0 C1.32 0.66 2.64 1.32 4 2 C2.02 4.64 0.04 7.28 -2 10 C-2.33 8.68 -2.66 7.36 -3 6 C-2.34 6 -1.68 6 -1 6 C-1.0309375 4.7934375 -1.0309375 4.7934375 -1.0625 3.5625 C-1 1 -1 1 0 0 Z " fill="#6BA7D1" transform="translate(149,62)"/>
<path d="M0 0 C1.34173403 0.92543709 2.67320159 1.86577405 4 2.8125 C5.11375 3.59560547 5.11375 3.59560547 6.25 4.39453125 C6.8275 4.92433594 7.405 5.45414063 8 6 C8 6.99 8 7.98 8 9 C6.68 9 5.36 9 4 9 C2.47700477 6.06279492 1.19899698 3.0831351 0 0 Z " fill="#70B2DA" transform="translate(62,56)"/>
<path d="M0 0 C0.66 0 1.32 0 2 0 C1.67 1.32 1.34 2.64 1 4 C-5.625 4.25 -5.625 4.25 -9 2 C-6.94921875 1.77213542 -4.8984375 1.54427083 -2.84765625 1.31640625 C-0.98859771 1.18113386 -0.98859771 1.18113386 0 0 Z " fill="#2A7CBC" transform="translate(61,163)"/>
<path d="M0 0 C3.3125 -0.1875 3.3125 -0.1875 7 0 C7.99 0.99 8.98 1.98 10 3 C6.37 3 2.74 3 -1 3 C-0.67 2.01 -0.34 1.02 0 0 Z " fill="#4493CF" transform="translate(20,123)"/>
<path d="M0 0 C4.2742558 1.5830577 6.26531794 4.50568404 9 8 C6.69 8 4.38 8 2 8 C2.04125 7.236875 2.0825 6.47375 2.125 5.6875 C2.22080824 2.77281584 2.22080824 2.77281584 0 0 Z " fill="#82BBDA" transform="translate(81,102)"/>
<path d="M0 0 C3.72114571 2.31537955 6.61229661 4.28579473 9 8 C8.01 8 7.02 8 6 8 C5.67 7.01 5.34 6.02 5 5 C3.35 5 1.7 5 0 5 C0 3.35 0 1.7 0 0 Z " fill="#6CAAD2" transform="translate(82,75)"/>
<path d="M0 0 C0.66 0.33 1.32 0.66 2 1 C1.67 1.66 1.34 2.32 1 3 C3.475 3.99 3.475 3.99 6 5 C6 5.99 6 6.98 6 8 C2.08597051 6.73058503 0.20927127 5.48832306 -2 2 C-1.34 2 -0.68 2 0 2 C0 1.34 0 0.68 0 0 Z " fill="#6B9FC4" transform="translate(105,161)"/>
<path d="M0 0 C1.32 0 2.64 0 4 0 C4.33 1.32 4.66 2.64 5 4 C3.1875 4.6875 3.1875 4.6875 1 5 C-0.75 3.5625 -0.75 3.5625 -2 2 C-1.34 1.34 -0.68 0.68 0 0 Z " fill="#2881C0" transform="translate(60,133)"/>
<path d="M0 0 C1.17539996 0.92652701 2.34010577 1.86663387 3.5 2.8125 C4.1496875 3.33457031 4.799375 3.85664063 5.46875 4.39453125 C7 6 7 6 7 9 C4.0625 7.875 4.0625 7.875 1 6 C0.125 2.8125 0.125 2.8125 0 0 Z " fill="#73AED3" transform="translate(73,18)"/>
<path d="M0 0 C0.66 0 1.32 0 2 0 C1.64950425 3.24208567 1.43778819 4.61527704 -1.0625 6.8125 C-1.701875 7.204375 -2.34125 7.59625 -3 8 C-3 6.02 -3 4.04 -3 2 C-2.34 2 -1.68 2 -1 2 C-0.67 1.34 -0.34 0.68 0 0 Z " fill="#63A5CD" transform="translate(76,149)"/>
<path d="M0 0 C0.99 0.33 1.98 0.66 3 1 C3 4.3 3 7.6 3 11 C1 8 1 8 0 5 C-0.66 4.34 -1.32 3.68 -2 3 C-1.34 2.01 -0.68 1.02 0 0 Z " fill="#3985BD" transform="translate(94,70)"/>
<path d="M0 0 C1.8125 0.0625 1.8125 0.0625 4 1 C5.75 4.5625 5.75 4.5625 7 8 C4.13792848 6.71700242 1.9754912 5.469364 0 3 C0 2.01 0 1.02 0 0 Z " fill="#72A5CB" transform="translate(81,65)"/>
<path d="M0 0 C0.33 1.32 0.66 2.64 1 4 C0.34 4 -0.32 4 -1 4 C-1 4.99 -1 5.98 -1 7 C-1.66 7 -2.32 7 -3 7 C-3 7.99 -3 8.98 -3 10 C-3.99 10 -4.98 10 -6 10 C-4.6302836 6.00499382 -2.74277578 3.19990508 0 0 Z " fill="#75ADD2" transform="translate(123,53)"/>
<path d="M0 0 C1.32 0 2.64 0 4 0 C4.99 2.31 5.98 4.62 7 7 C4.13302508 5.71480435 2.02392288 4.42870746 0 2 C0 1.34 0 0.68 0 0 Z " fill="#77AFD2" transform="translate(95,107)"/>
<path d="M0 0 C2.31 0 4.62 0 7 0 C5.92598892 2.91517292 5.22189824 4.77810176 3 7 C2.814375 5.824375 2.814375 5.824375 2.625 4.625 C2.20882007 1.85942178 2.20882007 1.85942178 0 0 Z " fill="#67A1CC" transform="translate(152,53)"/>
<path d="M0 0 C0.66 0 1.32 0 2 0 C1.35494404 3.48330216 0.01782732 6.09432866 -2 9 C-2.66 9 -3.32 9 -4 9 C-4 5 -4 5 -2.5625 3.375 C-2.046875 2.92125 -1.53125 2.4675 -1 2 C-0.67 1.34 -0.34 0.68 0 0 Z " fill="#278DD4" transform="translate(35,106)"/>
<path d="M0 0 C3.63 0.33 7.26 0.66 11 1 C11 1.99 11 2.98 11 4 C7.1936543 3.32829194 3.64793184 2.27253436 0 1 C0 0.67 0 0.34 0 0 Z " fill="#8EB5D1" transform="translate(51,166)"/>
<path d="M0 0 C2.31 0 4.62 0 7 0 C7 0.66 7 1.32 7 2 C8.32 2.33 9.64 2.66 11 3 C8.83032311 3.95465783 7.43671207 4.14401212 5.17578125 3.3984375 C3.4315257 2.64129615 1.71372869 1.82390802 0 1 C0 0.67 0 0.34 0 0 Z " fill="#76B0D5" transform="translate(40,161)"/>
<path d="M0 0 C2.0625 0.4375 2.0625 0.4375 4 1 C4.33 2.65 4.66 4.3 5 6 C3.125 5.75 3.125 5.75 1 5 C-0.25 2.9375 -0.25 2.9375 -1 1 C-0.67 0.67 -0.34 0.34 0 0 Z " fill="#357FB7" transform="translate(101,110)"/>
<path d="M0 0 C0.99 0.33 1.98 0.66 3 1 C2.67 1.66 2.34 2.32 2 3 C1.77377919 4.70363822 1.59111527 6.41328701 1.4375 8.125 C1.31181641 9.49011719 1.31181641 9.49011719 1.18359375 10.8828125 C1.12300781 11.58148438 1.06242187 12.28015625 1 13 C0.67 13 0.34 13 0 13 C-0.19397476 11.02145742 -0.38001321 9.0421352 -0.5625 7.0625 C-0.66691406 5.96035156 -0.77132812 4.85820313 -0.87890625 3.72265625 C-0.91886719 2.82417969 -0.95882812 1.92570312 -1 1 C-0.67 0.67 -0.34 0.34 0 0 Z " fill="#B8D1E1" transform="translate(78,99)"/>
<path d="M0 0 C2.5 2.3125 2.5 2.3125 5 5 C5 5.99 5 6.98 5 8 C3.68 7.67 2.36 7.34 1 7 C0.67 4.69 0.34 2.38 0 0 Z " fill="#75B2D8" transform="translate(142,101)"/>
<path d="M0 0 C0.99 0.33 1.98 0.66 3 1 C2.19185349 2.33597652 1.37836819 3.668725 0.5625 5 C0.11003906 5.7425 -0.34242188 6.485 -0.80859375 7.25 C-1.20175781 7.8275 -1.59492188 8.405 -2 9 C-2.33 9 -2.66 9 -3 9 C-3 7.35 -3 5.7 -3 4 C-2.01 4 -1.02 4 0 4 C0 2.68 0 1.36 0 0 Z " fill="#80B2D3" transform="translate(140,76)"/>
<path d="M0 0 C2 1.1875 2 1.1875 4 3 C4.25 5.6875 4.25 5.6875 4 8 C-0.875 3.25 -0.875 3.25 -2 1 C-1.34 0.67 -0.68 0.34 0 0 Z " fill="#66A4CF" transform="translate(28,69)"/>
<path d="M0 0 C2.475 0.99 2.475 0.99 5 2 C4.67 3.32 4.34 4.64 4 6 C3.01 6 2.02 6 1 6 C-0.0625 4.125 -0.0625 4.125 -1 2 C-0.67 1.34 -0.34 0.68 0 0 Z " fill="#2882C4" transform="translate(76,24)"/>
<path d="M0 0 C2.97 0.495 2.97 0.495 6 1 C6 1.99 6 2.98 6 4 C4.35 4 2.7 4 1 4 C0.67 2.68 0.34 1.36 0 0 Z " fill="#2D80BA" transform="translate(72,144)"/>
<path d="M0 0 C1.32 1.32 2.64 2.64 4 4 C1.69 4.33 -0.62 4.66 -3 5 C-2.67 4.01 -2.34 3.02 -2 2 C-1.34 2 -0.68 2 0 2 C0 1.34 0 0.68 0 0 Z " fill="#4A9ECD" transform="translate(98,118)"/>
<path d="M0 0 C0.66 0 1.32 0 2 0 C2.66 0.66 3.32 1.32 4 2 C4.66 2.33 5.32 2.66 6 3 C6 3.66 6 4.32 6 5 C4.68 5.33 3.36 5.66 2 6 C0 2.25 0 2.25 0 0 Z " fill="#317FB5" transform="translate(72,68)"/>
<path d="M0 0 C1.65 0 3.3 0 5 0 C6.125 3.75 6.125 3.75 5 6 C4.67 5.01 4.34 4.02 4 3 C1.99983534 1.79117904 1.99983534 1.79117904 0 1 C0 0.67 0 0.34 0 0 Z " fill="#6CA8CE" transform="translate(66,53)"/>
<path d="M0 0 C0.66 0.33 1.32 0.66 2 1 C1.19185349 2.33597652 0.37836819 3.668725 -0.4375 5 C-0.88996094 5.7425 -1.34242187 6.485 -1.80859375 7.25 C-2.20175781 7.8275 -2.59492187 8.405 -3 9 C-3.33 9 -3.66 9 -4 9 C-4.25 6.75 -4.25 6.75 -4 4 C-2 1.6875 -2 1.6875 0 0 Z " fill="#74ACD0" transform="translate(103,19)"/>
<path d="M0 0 C0.99 0.33 1.98 0.66 3 1 C3 1.99 3 2.98 3 4 C1.02 4.33 -0.96 4.66 -3 5 C-1.125 1.125 -1.125 1.125 0 0 Z " fill="#65A9D3" transform="translate(55,133)"/>
<path d="M0 0 C-3.09478879 1.03159626 -4.52631393 0.97482862 -7.6875 0.5625 C-8.89986328 0.40974609 -8.89986328 0.40974609 -10.13671875 0.25390625 C-10.75160156 0.17011719 -11.36648437 0.08632812 -12 0 C-12 -0.33 -12 -0.66 -12 -1 C-7.48281619 -2.36884358 -4.41225737 -1.47075246 0 0 Z " fill="#438EC2" transform="translate(92,111)"/>
</svg>
